<svg fill="none" height="566.00012" viewBox="0 0 2570 566.00012" width="2570" xmlns="http://www.w3.org/2000/svg"><g fill="#0d069e"><path d="m1870.4401 235.542c-12.08 0-23.13 2.718-33.16 8.153-10.02 5.435-18.06 13.709-24.1 24.82-6.03 11.112-9.05 24.639-9.05 40.58 0 16.185 2.96 29.833 8.87 40.945 5.92 11.112 13.83 19.385 23.74 24.82 9.9 5.435 20.77 8.153 32.61 8.153s22.95-2.778 33.34-8.334 18.78-13.89 25.18-25.002c6.4-11.111 9.61-24.639 9.61-40.582 0-15.941-3.15-29.468-9.43-40.58-6.28-11.111-14.49-19.385-24.64-24.82-10.14-5.435-21.13-8.153-32.97-8.153zm-463.65 0c-12.08 0-23.13 2.718-33.16 8.153-10.02 5.435-18.05 13.709-24.09 24.82-6.04 11.112-9.06 24.639-9.06 40.58 0 16.185 2.96 29.833 8.88 40.945s13.83 19.385 23.73 24.82c9.91 5.435 20.78 8.153 32.61 8.153 11.84 0 22.95-2.778 33.34-8.334s18.78-13.89 25.19-25.002c6.4-11.111 9.6-24.639 9.6-40.582 0-15.941-3.14-29.468-9.42-40.58-6.28-11.111-14.5-19.385-24.64-24.82-10.15-5.435-21.14-8.153-32.98-8.153zm981.15-25.363h32.98v198.56h-32.98zm-1512.98102 0h32.975v198.56h-32.975zm995.84102-3.262c18.84 0 35.87 4.167 51.09 12.501s27.24 20.231 36.06 35.691 13.22 33.456 13.22 53.986c0 20.533-4.52 38.59-13.58 54.17-9.06 15.581-21.32 27.598-36.78 36.053s-32.62 12.682-51.46 12.682c-18.6 0-35.45-4.227-50.55-12.682s-26.93-20.472-35.51-36.053c-8.58-15.58-12.86-33.637-12.86-54.17 0-20.289 4.41-38.224 13.22-53.805 8.82-15.581 20.84-27.538 36.06-35.872s32.25-12.501 51.09-12.501zm-463.65 0c18.85 0 35.88 4.167 51.1 12.501s27.23 20.231 36.05 35.691 13.23 33.456 13.23 53.986c0 20.533-4.53 38.59-13.59 54.17-9.06 15.581-21.32 27.598-36.78 36.053s-32.61 12.682-51.46 12.682c-18.6 0-35.45-4.227-50.55-12.682-15.09-8.455-26.93-20.472-35.51-36.053-8.57-15.58-12.86-33.637-12.86-54.17 0-20.289 4.41-38.224 13.23-53.805 8.81-15.581 20.83-27.538 36.05-35.872s32.25-12.501 51.09-12.501zm-223.49 0c24.4 0 44.51 5.919 60.34 17.755 15.81 11.837 26.26 28.263 31.34 49.278h-35.52c-3.37-12.078-9.96-21.619-19.74-28.624-9.79-7.006-21.93-10.508-36.42-10.508-18.84 0-34.06 6.461-45.66 19.385-11.59 12.923-17.39 31.222-17.39 54.892 0 23.915 5.8 42.394 17.39 55.438 11.6 13.045 26.82 19.567 45.66 19.567 14.49 0 26.57-3.382 36.24-10.146 9.66-6.763 16.3-16.426 19.92-28.987h35.52c-5.32 20.291-15.95 36.536-31.89 48.735s-35.88 18.298-59.79 18.298c-18.84 0-35.57-4.227-50.19-12.682-14.61-8.455-26.02-20.412-34.24-35.872s-12.32-33.577-12.32-54.351c0-20.53 4.1-38.466 12.32-53.805s19.63-27.236 34.24-35.691c14.62-8.454 31.35-12.682 50.19-12.682zm926.57-.362c16.67 0 31.41 3.744 44.21 11.233 12.81 7.488 22.35 18.479 28.63 32.973 5.55-14.011 14.73-24.881 27.54-32.611 12.8-7.73 27.05-11.595 42.76-11.595 15.46 0 29.23 3.201 41.31 9.602 12.07 6.401 21.62 16.004 28.62 28.806 7.01 12.803 10.51 28.384 10.51 46.742v117.034h-32.61v-112.323c0-19.808-4.89-34.966-14.68-45.474-9.78-10.508-23.01-15.762-39.68-15.762-17.15 0-30.8 5.496-40.94 16.487-10.15 10.991-15.22 26.873-15.22 47.647v109.425h-32.61v-112.323c0-19.808-4.9-34.966-14.68-45.474s-23.01-15.762-39.68-15.762c-17.15 0-30.8 5.496-40.95 16.487-10.14 10.991-15.21 26.873-15.21 47.647v109.425h-32.98v-198.56h32.98v28.624c6.52-10.387 15.27-18.358 26.27-23.914 10.99-5.556 23.13-8.334 36.41-8.334zm-462.56 0c24.16 0 43.73 7.307 58.71 21.922 14.97 14.614 22.46 35.69 22.46 63.228v117.034h-32.61v-112.323c0-19.808-4.95-34.966-14.86-45.474-9.9-10.508-23.43-15.762-40.58-15.762-17.39 0-31.22 5.435-41.49 16.305-10.27 10.871-15.4 26.693-15.4 47.467v109.787h-32.98v-198.56h32.98v28.262c6.52-10.145 15.4-17.996 26.63-23.552s23.62-8.334 37.14-8.334zm-586.58 0v34.06h-8.7c-36.96 0-55.44102 20.05-55.44102 60.149v107.975h-32.975v-198.56h32.975v32.248c5.80102-11.354 14.07102-20.17 24.82102-26.451s23.86-9.421 39.32-9.421zm1423.12-46.379h32.97v50.003h51.82v27.175h-51.82v117.034c0 9.662 2.06 16.486 6.16 20.472 4.11 3.986 11.24 5.979 21.38 5.979h24.28v27.9h-29.71c-18.36 0-32.13-4.227-41.31-12.682s-13.77-22.344-13.77-41.669v-117.034h-25.73v-27.175h25.73zm-1775.10802-7.247c27.539 0 51.576 6.643 72.11 19.928 20.534 13.286 35.511 32.128 44.933 56.526h-39.498c-7.005-15.219-17.091-26.934-30.257-35.147-13.166-8.214-28.928-12.32-47.288-12.32-17.635 0-33.458 4.106-47.47 12.32-14.011 8.213-25.002 19.868-32.974 34.965-7.972 15.098-11.958 32.792-11.958 53.083 0 20.05 3.986 37.621 11.958 52.719 7.972 15.097 18.963 26.752 32.974 34.965 14.012 8.214 29.835 12.32 47.47 12.32 18.36 0 34.122-4.046 47.288-12.138 13.166-8.093 23.252-19.748 30.257-34.966h39.498c-9.422 24.156-24.399 42.816-44.933 55.981s-44.571 19.748-72.11 19.748c-23.433 0-44.752-5.496-63.957-16.487s-34.364-26.269-45.476-45.836c-11.113-19.566-16.669-41.667-16.669-66.306s5.556-46.802 16.669-66.489c11.112-19.687 26.271-35.087 45.476-46.199 19.205-11.111 40.524-16.667 63.957-16.667zm1695.86802-19.929c6.04 0 11.17 2.174 15.4 6.522s6.34 9.663 6.34 15.943c0 6.281-2.11 11.595-6.34 15.943s-9.36 6.522-15.4 6.522c-6.28 0-11.59-2.174-15.94-6.522s-6.53-9.662-6.53-15.943c0-6.28 2.18-11.595 6.53-15.943s9.66-6.522 15.94-6.522zm-1512.98002 0c6.04 0 11.173 2.174 15.401 6.522 4.227 4.348 6.341 9.663 6.341 15.943 0 6.281-2.114 11.595-6.341 15.943-4.228 4.348-9.361 6.522-15.401 6.522-6.281 0-11.595-2.174-15.944-6.522-4.348-4.348-6.522-9.662-6.522-15.943 0-6.28 2.174-11.595 6.522-15.943 4.349-4.348 9.663-6.522 15.944-6.522z" style="fill-rule:evenodd;clip-rule:evenodd;stroke:#0d069e;stroke-width:2;stroke-miterlimit:10;stroke-linejoin:round"/><path d="m247.35108 23.6638c-1.597-11.6131-12.33-19.81337-23.79-17.35134-39.796 8.54904-77.367 25.60274-110.092 50.08604-38.402702 28.7308-68.873702 66.7505-88.551702 110.4885-19.67805 43.738-27.91751 91.759-23.94472996 139.555 3.97277996 47.796 20.02742996 93.798 46.65652996 133.687s62.958902 72.356 105.577902 94.352c42.619 21.997 90.13 32.801 138.07 31.398s94.737-14.966 135.998-39.417c35.16-20.836 65.316-48.995 88.471-82.471 6.669-9.641 3.211-22.698-6.902-28.625-10.114-5.927-23.043-2.469-29.838 7.083-19.431 27.311-44.403 50.327-73.373 67.494-35.071 20.783-74.848 32.312-115.598 33.504-40.749 1.192-81.133-7.991-117.359-26.688s-67.107-46.294-89.741302-80.199c-22.6347-33.906-36.2812-73.008-39.658-113.634-3.3769-40.627 3.6267-81.445 20.353-118.622 16.7263-37.178 42.626302-69.494 75.269302-93.9153 26.963-20.1723 57.795-34.4109 90.469-41.8838 11.427-2.6135 19.579-13.2281 17.983-24.8411z"/><rect height="45" rx="22.5" width="280" x="265.00009" y="126"/><circle cx="297.50009" cy="22.5" r="22.5"/><path d="m375.00008 171h45v227.5c0 12.426-10.074 22.5-22.5 22.5s-22.5-10.074-22.5-22.5z"/><rect height="270" rx="22.5" width="45" x="275.00009" y="196"/></g></svg>