<svg width="30" height="30" viewBox="0 0 30 30" fill="none" xmlns="http://www.w3.org/2000/svg" xmlns:xlink="http://www.w3.org/1999/xlink">
<circle cx="15" cy="15" r="15" fill="url(#pattern0)"/>
<defs>
<svg version="1.1" id="Layer_1" xmlns="http://www.w3.org/2000/svg" xmlns:xlink="http://www.w3.org/1999/xlink" x="0px" y="0px"
	 width="100%" viewBox="0 0 600 314" enable-background="new 0 0 600 314" xml:space="preserve">
<path fill="#FEFEFE" opacity="1.000000" stroke="none" 
	d="
M557.000000,315.000000 
	C371.383972,315.000000 186.267944,315.000000 1.075955,315.000000 
	C1.075955,210.412643 1.075955,105.825211 1.075955,1.118889 
	C200.999954,1.118889 400.999969,1.118889 600.993896,1.118889 
	C600.993896,105.732002 600.993896,210.365997 600.990845,315.000000 
	C586.491882,315.000000 571.995972,315.000000 557.000000,315.000000 
M551.077026,185.980469 
	C554.432068,188.894424 557.336548,191.455261 562.534180,188.392151 
	C567.001404,185.759506 570.454651,183.263809 568.784424,178.567459 
	C567.463684,174.854019 563.424316,172.010529 560.257080,169.152039 
	C559.764587,168.707550 557.480042,170.248734 555.251038,170.829346 
	C548.615784,173.121063 546.941772,178.766937 551.077026,185.980469 
M205.099197,166.576248 
	C204.581406,167.505920 204.063614,168.435593 203.233353,169.926254 
	C202.208664,167.881012 201.441544,166.448975 200.761444,164.976761 
	C195.317825,153.193085 189.942932,141.377045 184.390274,129.645096 
	C183.719101,128.227051 182.204636,126.361572 180.926376,126.232262 
	C176.675430,125.802277 172.353973,126.069641 167.848801,126.069641 
	C167.848801,147.253464 167.848801,167.986954 167.848801,188.669769 
	C172.750641,188.669769 177.319412,188.669769 182.339722,188.669769 
	C182.339722,179.496902 182.339722,170.687439 182.339722,161.877975 
	C186.252518,168.888962 189.771545,175.873871 192.539581,183.144714 
	C194.267853,187.684311 196.625824,188.970490 201.543427,189.298813 
	C208.999725,189.796585 212.990341,187.515869 215.285843,180.331070 
	C217.299301,174.029053 220.619141,168.144424 223.361938,162.075439 
	C223.746002,162.189728 224.130051,162.304001 224.514114,162.418289 
	C224.514114,171.186981 224.514114,179.955673 224.514114,188.684952 
	C229.541550,188.684952 234.109970,188.684952 238.737488,188.684952 
	C238.737488,167.748184 238.737488,147.161224 238.737488,126.059265 
	C235.219040,126.059265 231.902542,126.316513 228.644150,125.991364 
	C224.929504,125.620689 223.031113,126.990356 221.530441,130.440674 
	C216.356216,142.336990 210.822922,154.077148 205.099197,166.576248 
M371.207306,169.138992 
	C371.796448,170.332947 372.347137,171.547729 372.980652,172.717651 
	C379.202362,184.207062 392.031036,190.686356 404.792358,188.800995 
	C417.774994,186.882919 429.268585,176.837631 430.565430,163.829697 
	C431.793823,151.508316 430.829529,138.968353 430.829529,126.029114 
	C421.216797,126.029114 411.594574,125.966843 401.973389,126.041473 
	C378.629944,126.222542 364.098206,146.109756 371.207306,169.138992 
M436.580566,176.480377 
	C436.580566,180.575745 436.580566,184.671097 436.580566,188.879547 
	C445.848633,188.879547 454.524353,189.344818 463.132629,188.780655 
	C479.970856,187.677139 492.422150,175.302582 493.198547,159.616119 
	C494.042206,142.571075 483.777130,129.365814 466.212036,126.966385 
	C456.642700,125.659187 446.748138,126.733086 436.580658,126.733086 
	C436.580658,142.909225 436.580658,159.197495 436.580566,176.480377 
M498.414825,178.459518 
	C498.414825,181.897491 498.414825,185.335449 498.414825,188.693817 
	C513.955383,188.693817 528.841919,188.693817 543.707703,188.693817 
	C543.707703,183.739441 543.707703,179.154099 543.707703,173.966156 
	C533.419983,173.966156 523.403809,173.966156 513.399780,173.966156 
	C513.399780,170.707047 513.399780,168.061310 513.399780,164.855469 
	C523.580627,164.855469 533.643127,164.855469 543.708069,164.855469 
	C543.708069,159.711044 543.708069,155.130676 543.708069,150.131805 
	C533.491943,150.131805 523.564941,150.131805 513.454346,150.131805 
	C513.454346,146.937607 513.454346,144.168579 513.454346,140.840302 
	C523.589478,140.840302 533.651123,140.840302 543.735107,140.840302 
	C543.735107,135.691391 543.735107,131.103210 543.735107,126.346054 
	C528.594360,126.346054 513.726257,126.346054 498.414856,126.346054 
	C498.414856,143.585953 498.414856,160.527878 498.414825,178.459518 
M116.053848,129.478531 
	C98.940834,139.544983 93.931564,159.544266 104.557114,175.378784 
	C114.593033,190.334610 135.466934,193.812225 149.926895,182.937439 
	C162.685867,173.341904 166.334213,155.490646 158.343277,141.756332 
	C149.873199,127.198563 133.188263,122.132607 116.053848,129.478531 
M87.596191,136.967239 
	C76.653854,124.967804 59.999523,122.547119 47.472473,131.135330 
	C34.434208,140.074036 29.910284,157.663910 36.970810,171.967743 
	C43.710922,185.622437 59.641613,192.311188 74.150253,187.578125 
	C88.117989,183.021515 96.224930,168.146851 93.320877,152.331970 
	C83.961708,152.331970 74.597733,152.331970 65.252632,152.331970 
	C65.252632,157.160889 65.252632,161.601654 65.252632,166.753021 
	C69.264229,166.753021 73.078842,166.753021 77.299950,166.753021 
	C72.493294,174.223038 63.910133,176.388794 56.870544,172.506500 
	C49.121403,168.232880 46.087479,158.231674 50.025085,149.940704 
	C53.668217,142.269745 62.469131,138.322495 70.113426,141.920380 
	C77.053604,145.186874 83.886841,143.325211 91.835678,143.986801 
	C90.160980,141.189392 89.079300,139.382553 87.596191,136.967239 
M349.992706,130.465057 
	C332.695923,121.238380 313.338531,127.715057 305.797424,145.252121 
	C298.519684,162.176697 307.132355,181.627960 324.476990,187.438995 
	C340.288605,192.736404 359.210144,183.653824 362.688843,168.822845 
	C355.383118,169.227554 348.272034,167.434265 341.323669,172.546921 
	C335.122345,177.109909 325.486877,173.948822 320.985657,167.604507 
	C316.257263,160.939987 317.031281,151.285889 322.752594,145.566864 
	C328.407776,139.913956 337.220856,139.208878 343.767334,143.838013 
	C345.081848,144.767548 346.477173,146.164185 347.901917,146.250977 
	C352.821381,146.550629 357.770294,146.366364 363.353699,146.366364 
	C360.563934,139.355225 356.427856,134.431656 349.992706,130.465057 
M282.052643,176.533493 
	C281.066833,169.424866 283.025757,163.189774 287.246521,157.426483 
	C289.494171,154.357407 291.158051,150.862579 293.107086,147.572739 
	C297.219086,140.631943 301.345367,133.699615 305.915955,126.006027 
	C300.957458,126.006027 297.014404,126.194969 293.099365,125.944962 
	C290.083740,125.752403 288.279358,126.676186 286.761871,129.416840 
	C282.998047,136.214294 278.863586,142.806534 274.622101,149.909790 
	C270.244781,142.693954 266.250946,135.984421 262.098907,129.374237 
	C261.289398,128.085526 259.927704,126.340027 258.713806,126.250244 
	C253.860443,125.891281 248.964951,126.102089 243.333496,126.102089 
	C244.695633,128.520752 245.535675,130.096985 246.452774,131.627014 
	C252.692841,142.037537 259.062195,152.373337 265.111694,162.893173 
	C266.436279,165.196548 267.119293,168.119324 267.261322,170.801132 
	C267.575867,176.740234 267.359253,182.707489 267.359253,188.722733 
	C272.588470,188.722733 277.150543,188.722733 282.052887,188.722733 
	C282.052887,184.780136 282.052887,181.146851 282.052643,176.533493 
z"/>
<path fill="#131313" opacity="1.000000" stroke="none" 
	d="
M205.262787,166.226517 
	C210.822922,154.077148 216.356216,142.336990 221.530441,130.440674 
	C223.031113,126.990356 224.929504,125.620689 228.644150,125.991364 
	C231.902542,126.316513 235.219040,126.059265 238.737488,126.059265 
	C238.737488,147.161224 238.737488,167.748184 238.737488,188.684952 
	C234.109970,188.684952 229.541550,188.684952 224.514114,188.684952 
	C224.514114,179.955673 224.514114,171.186981 224.514114,162.418289 
	C224.130051,162.304001 223.746002,162.189728 223.361938,162.075439 
	C220.619141,168.144424 217.299301,174.029053 215.285843,180.331070 
	C212.990341,187.515869 208.999725,189.796585 201.543427,189.298813 
	C196.625824,188.970490 194.267853,187.684311 192.539581,183.144714 
	C189.771545,175.873871 186.252518,168.888962 182.339722,161.877975 
	C182.339722,170.687439 182.339722,179.496902 182.339722,188.669769 
	C177.319412,188.669769 172.750641,188.669769 167.848801,188.669769 
	C167.848801,167.986954 167.848801,147.253464 167.848801,126.069641 
	C172.353973,126.069641 176.675430,125.802277 180.926376,126.232262 
	C182.204636,126.361572 183.719101,128.227051 184.390274,129.645096 
	C189.942932,141.377045 195.317825,153.193085 200.761444,164.976761 
	C201.441544,166.448975 202.208664,167.881012 203.233353,169.926254 
	C204.063614,168.435593 204.581406,167.505920 205.262787,166.226517 
z"/>
<path fill="#E0121C" opacity="1.000000" stroke="none" 
	d="
M371.093079,168.764862 
	C364.098206,146.109756 378.629944,126.222542 401.973389,126.041473 
	C411.594574,125.966843 421.216797,126.029114 430.829529,126.029114 
	C430.829529,138.968353 431.793823,151.508316 430.565430,163.829697 
	C429.268585,176.837631 417.774994,186.882919 404.792358,188.800995 
	C392.031036,190.686356 379.202362,184.207062 372.980652,172.717651 
	C372.347137,171.547729 371.796448,170.332947 371.093079,168.764862 
M394.726196,141.768173 
	C386.335815,145.621399 382.393677,153.046051 384.219421,161.556702 
	C385.861664,169.212021 392.517395,174.418976 400.500061,174.293427 
	C408.572937,174.166458 415.623657,168.613937 416.501953,160.597626 
	C417.199036,154.235199 416.642365,147.735397 416.642365,141.426712 
	C409.351685,141.426712 402.419495,141.426712 394.726196,141.768173 
z"/>
<path fill="#131313" opacity="1.000000" stroke="none" 
	d="
M436.580627,175.983063 
	C436.580658,159.197495 436.580658,142.909225 436.580658,126.733086 
	C446.748138,126.733086 456.642700,125.659187 466.212036,126.966385 
	C483.777130,129.365814 494.042206,142.571075 493.198547,159.616119 
	C492.422150,175.302582 479.970856,187.677139 463.132629,188.780655 
	C454.524353,189.344818 445.848633,188.879547 436.580566,188.879547 
	C436.580566,184.671097 436.580566,180.575745 436.580627,175.983063 
M478.546875,157.500519 
	C478.465424,146.232269 468.607483,138.353058 451.517883,141.637314 
	C451.517883,152.332642 451.517883,163.049118 451.517883,173.727493 
	C468.250488,175.745270 476.616486,170.891510 478.546875,157.500519 
z"/>
<path fill="#161616" opacity="1.000000" stroke="none" 
	d="
M498.414856,177.964661 
	C498.414856,160.527878 498.414856,143.585953 498.414856,126.346054 
	C513.726257,126.346054 528.594360,126.346054 543.735107,126.346054 
	C543.735107,131.103210 543.735107,135.691391 543.735107,140.840302 
	C533.651123,140.840302 523.589478,140.840302 513.454346,140.840302 
	C513.454346,144.168579 513.454346,146.937607 513.454346,150.131805 
	C523.564941,150.131805 533.491943,150.131805 543.708069,150.131805 
	C543.708069,155.130676 543.708069,159.711044 543.708069,164.855469 
	C533.643127,164.855469 523.580627,164.855469 513.399780,164.855469 
	C513.399780,168.061310 513.399780,170.707047 513.399780,173.966156 
	C523.403809,173.966156 533.419983,173.966156 543.707703,173.966156 
	C543.707703,179.154099 543.707703,183.739441 543.707703,188.693817 
	C528.841919,188.693817 513.955383,188.693817 498.414825,188.693817 
	C498.414825,185.335449 498.414825,181.897491 498.414856,177.964661 
z"/>
<path fill="#141414" opacity="1.000000" stroke="none" 
	d="
M116.380508,129.296570 
	C133.188263,122.132607 149.873199,127.198563 158.343277,141.756332 
	C166.334213,155.490646 162.685867,173.341904 149.926895,182.937439 
	C135.466934,193.812225 114.593033,190.334610 104.557114,175.378784 
	C93.931564,159.544266 98.940834,139.544983 116.380508,129.296570 
M144.488220,166.778595 
	C148.429184,160.277283 148.482681,153.755600 143.906769,147.655014 
	C139.885712,142.294144 134.253662,140.117508 127.608337,141.427765 
	C120.185608,142.891312 115.038399,148.854950 114.350563,156.381287 
	C113.737617,163.088135 117.997360,170.027786 124.395386,172.745529 
	C131.391235,175.717194 138.244080,173.842361 144.488220,166.778595 
z"/>
<path fill="#151515" opacity="1.000000" stroke="none" 
	d="
M87.796906,137.271484 
	C89.079300,139.382553 90.160980,141.189392 91.835678,143.986801 
	C83.886841,143.325211 77.053604,145.186874 70.113426,141.920380 
	C62.469131,138.322495 53.668217,142.269745 50.025085,149.940704 
	C46.087479,158.231674 49.121403,168.232880 56.870544,172.506500 
	C63.910133,176.388794 72.493294,174.223038 77.299950,166.753021 
	C73.078842,166.753021 69.264229,166.753021 65.252632,166.753021 
	C65.252632,161.601654 65.252632,157.160889 65.252632,152.331970 
	C74.597733,152.331970 83.961708,152.331970 93.320877,152.331970 
	C96.224930,168.146851 88.117989,183.021515 74.150253,187.578125 
	C59.641613,192.311188 43.710922,185.622437 36.970810,171.967743 
	C29.910284,157.663910 34.434208,140.074036 47.472473,131.135330 
	C59.999523,122.547119 76.653854,124.967804 87.796906,137.271484 
z"/>
<path fill="#151515" opacity="1.000000" stroke="none" 
	d="
M350.305054,130.659149 
	C356.427856,134.431656 360.563934,139.355225 363.353699,146.366364 
	C357.770294,146.366364 352.821381,146.550629 347.901917,146.250977 
	C346.477173,146.164185 345.081848,144.767548 343.767334,143.838013 
	C337.220856,139.208878 328.407776,139.913956 322.752594,145.566864 
	C317.031281,151.285889 316.257263,160.939987 320.985657,167.604507 
	C325.486877,173.948822 335.122345,177.109909 341.323669,172.546921 
	C348.272034,167.434265 355.383118,169.227554 362.688843,168.822845 
	C359.210144,183.653824 340.288605,192.736404 324.476990,187.438995 
	C307.132355,181.627960 298.519684,162.176697 305.797424,145.252121 
	C313.338531,127.715057 332.695923,121.238380 350.305054,130.659149 
z"/>
<path fill="#151515" opacity="1.000000" stroke="none" 
	d="
M282.052765,177.023529 
	C282.052887,181.146851 282.052887,184.780136 282.052887,188.722733 
	C277.150543,188.722733 272.588470,188.722733 267.359253,188.722733 
	C267.359253,182.707489 267.575867,176.740234 267.261322,170.801132 
	C267.119293,168.119324 266.436279,165.196548 265.111694,162.893173 
	C259.062195,152.373337 252.692841,142.037537 246.452774,131.627014 
	C245.535675,130.096985 244.695633,128.520752 243.333496,126.102089 
	C248.964951,126.102089 253.860443,125.891281 258.713806,126.250244 
	C259.927704,126.340027 261.289398,128.085526 262.098907,129.374237 
	C266.250946,135.984421 270.244781,142.693954 274.622101,149.909790 
	C278.863586,142.806534 282.998047,136.214294 286.761871,129.416840 
	C288.279358,126.676186 290.083740,125.752403 293.099365,125.944962 
	C297.014404,126.194969 300.957458,126.006027 305.915955,126.006027 
	C301.345367,133.699615 297.219086,140.631943 293.107086,147.572739 
	C291.158051,150.862579 289.494171,154.357407 287.246521,157.426483 
	C283.025757,163.189774 281.066833,169.424866 282.052765,177.023529 
z"/>
<path fill="#E2E2E2" opacity="1.000000" stroke="none" 
	d="
M556.024170,170.871674 
	C557.480042,170.248734 559.764587,168.707550 560.257080,169.152039 
	C563.424316,172.010529 567.463684,174.854019 568.784424,178.567459 
	C570.454651,183.263809 567.001404,185.759506 562.534180,188.392151 
	C557.336548,191.455261 554.432068,188.894424 551.330566,185.397888 
	C549.487976,179.028687 551.397888,174.517715 556.024170,170.871674 
M565.264221,182.861435 
	C565.180725,182.911285 565.097229,182.961136 564.721008,183.090836 
	C564.810730,183.056091 564.900391,183.021332 565.264221,182.861435 
M561.119202,182.058395 
	C561.784180,181.690292 562.551086,181.432205 563.092529,180.930679 
	C564.152771,179.948593 565.614807,178.941345 565.869629,177.726196 
	C566.014709,177.034576 564.102356,175.911423 562.520447,174.629089 
	C559.805725,172.850037 556.731018,172.535843 555.132263,175.446671 
	C554.035767,177.443161 553.959534,180.606537 554.679749,182.845413 
	C555.643188,185.840240 558.933167,185.608551 561.119202,182.058395 
z"/>
<path fill="#494949" opacity="1.000000" stroke="none" 
	d="
M555.637573,170.850525 
	C551.397888,174.517715 549.487976,179.028687 551.273682,185.053207 
	C546.941772,178.766937 548.615784,173.121063 555.637573,170.850525 
z"/>
<path fill="#FDF7F7" opacity="1.000000" stroke="none" 
	d="
M395.106750,141.597443 
	C402.419495,141.426712 409.351685,141.426712 416.642365,141.426712 
	C416.642365,147.735397 417.199036,154.235199 416.501953,160.597626 
	C415.623657,168.613937 408.572937,174.166458 400.500061,174.293427 
	C392.517395,174.418976 385.861664,169.212021 384.219421,161.556702 
	C382.393677,153.046051 386.335815,145.621399 395.106750,141.597443 
z"/>
<path fill="#F8F8F8" opacity="1.000000" stroke="none" 
	d="
M478.516113,157.893005 
	C476.616486,170.891510 468.250488,175.745270 451.517883,173.727493 
	C451.517883,163.049118 451.517883,152.332642 451.517883,141.637314 
	C468.607483,138.353058 478.465424,146.232269 478.516113,157.893005 
z"/>
<path fill="#F9F9F9" opacity="1.000000" stroke="none" 
	d="
M144.258636,167.076340 
	C138.244080,173.842361 131.391235,175.717194 124.395386,172.745529 
	C117.997360,170.027786 113.737617,163.088135 114.350563,156.381287 
	C115.038399,148.854950 120.185608,142.891312 127.608337,141.427765 
	C134.253662,140.117508 139.885712,142.294144 143.906769,147.655014 
	C148.482681,153.755600 148.429184,160.277283 144.258636,167.076340 
z"/>
<path fill="#FEFEFE" opacity="1.000000" stroke="none" 
	d="
M563.116516,174.982605 
	C564.102356,175.911423 566.014709,177.034576 565.869629,177.726196 
	C565.614807,178.941345 564.152771,179.948593 563.092529,180.930679 
	C562.551086,181.432205 561.784180,181.690292 560.648193,182.534119 
	C558.809265,182.240875 556.773804,181.768646 556.262634,180.618790 
	C555.759583,179.487015 556.376099,177.237061 557.319031,176.304855 
	C557.930725,175.700134 560.020447,176.779572 561.424194,176.697708 
	C562.019653,176.662979 562.554260,175.585922 563.116516,174.982605 
z"/>
<path fill="#3F3F3F" opacity="1.000000" stroke="none" 
	d="
M562.818481,174.805847 
	C562.554260,175.585922 562.019653,176.662979 561.424194,176.697708 
	C560.020447,176.779572 557.930725,175.700134 557.319031,176.304855 
	C556.376099,177.237061 555.759583,179.487015 556.262634,180.618790 
	C556.773804,181.768646 558.809265,182.240875 560.572021,182.880264 
	C558.933167,185.608551 555.643188,185.840240 554.679749,182.845413 
	C553.959534,180.606537 554.035767,177.443161 555.132263,175.446671 
	C556.731018,172.535843 559.805725,172.850037 562.818481,174.805847 
z"/>
<path fill="#FEFEFE" opacity="1.000000" stroke="none" 
	d="
M565.013733,183.010986 
	C565.097229,182.961136 565.180725,182.911285 565.132141,182.930847 
	C565.000061,183.000259 565.013733,183.011002 565.013733,183.010986 
z"/>
<path fill="#FEFEFE" opacity="1.000000" stroke="none" 
	d="
M564.995117,182.993423 
	C564.900391,183.021332 564.810730,183.056091 564.867371,183.050919 
	C565.013733,183.011002 565.000061,183.000259 564.995117,182.993423 
z"/>
</svg>